<svg width="16" height="16" viewBox="0 0 16 16" fill="none" xmlns="http://www.w3.org/2000/svg">
<g clip-path="url(#clip0_129_903)">
<path d="M5.09082 0.727264V2.90908" stroke="#96C0FF" stroke-width="1.2" stroke-miterlimit="10" stroke-linecap="round" stroke-linejoin="round"/>
<path d="M10.9092 0.727264V2.90908" stroke="#96C0FF" stroke-width="1.2" stroke-miterlimit="10" stroke-linecap="round" stroke-linejoin="round"/>
<path d="M1.81812 5.88361H14.1818" stroke="#96C0FF" stroke-width="1.2" stroke-miterlimit="10" stroke-linecap="round" stroke-linejoin="round"/>
<path d="M14.5455 5.45454V11.6364C14.5455 13.8182 13.4546 15.2727 10.9091 15.2727H5.09095C2.5455 15.2727 1.45459 13.8182 1.45459 11.6364V5.45454C1.45459 3.27272 2.5455 1.81818 5.09095 1.81818H10.9091C13.4546 1.81818 14.5455 3.27272 14.5455 5.45454Z" stroke="#96C0FF" stroke-width="1.2" stroke-miterlimit="10" stroke-linecap="round" stroke-linejoin="round"/>
<path d="M10.687 9.23632H10.6936" stroke="#96C0FF" stroke-width="1.4" stroke-linecap="round" stroke-linejoin="round"/>
<path d="M10.687 11.4181H10.6936" stroke="#96C0FF" stroke-width="1.4" stroke-linecap="round" stroke-linejoin="round"/>
<path d="M7.9966 9.23632H8.00314" stroke="#96C0FF" stroke-width="1.4" stroke-linecap="round" stroke-linejoin="round"/>
<path d="M7.9966 11.4181H8.00314" stroke="#96C0FF" stroke-width="1.4" stroke-linecap="round" stroke-linejoin="round"/>
<path d="M5.30495 9.23632H5.31149" stroke="#96C0FF" stroke-width="1.4" stroke-linecap="round" stroke-linejoin="round"/>
<path d="M5.30495 11.4181H5.31149" stroke="#96C0FF" stroke-width="1.4" stroke-linecap="round" stroke-linejoin="round"/>
</g>
<defs>
<clipPath id="clip0_129_903">
<rect width="16" height="16" fill="white"/>
</clipPath>
</defs>
</svg>
