<svg width="20" height="20" viewBox="0 0 20 20" fill="none" xmlns="http://www.w3.org/2000/svg">
<path d="M17.0707 14.6431L17.0698 14.643C17.0364 14.6406 17.0039 14.6245 16.9796 14.5969C16.9557 14.5698 16.9466 14.5394 16.9486 14.5115L16.45 14.475L16.9482 14.5165C16.9583 14.3956 16.9583 14.2696 16.9583 14.1748V14.1667V5.83335C16.9583 5.08098 16.9237 4.44578 16.8138 3.92218C16.7027 3.39306 16.5075 2.94178 16.1601 2.5937C15.8127 2.24557 15.3616 2.04932 14.8319 1.93749C14.3077 1.82684 13.6713 1.79169 12.9166 1.79169H7.08329C6.32863 1.79169 5.69223 1.82684 5.16804 1.93749C4.63829 2.04932 4.18723 2.24557 3.8398 2.5937C3.49242 2.94178 3.2972 3.39306 3.18614 3.92218C3.07625 4.44578 3.04163 5.08098 3.04163 5.83335V15C3.04163 15.0302 3.02934 15.0614 3.0037 15.0871C2.97805 15.1127 2.94677 15.125 2.91663 15.125C2.88648 15.125 2.8552 15.1127 2.82955 15.0871C2.80391 15.0614 2.79163 15.0302 2.79163 15V5.83335C2.79163 4.01307 3.07644 2.9994 3.66289 2.41295C4.24934 1.8265 5.26301 1.54169 7.08329 1.54169H12.9166C14.7369 1.54169 15.7506 1.8265 16.337 2.41295C16.9235 2.9994 17.2083 4.01307 17.2083 5.83335V14.1667C17.2083 14.3007 17.2081 14.4095 17.2012 14.5235C17.1986 14.5523 17.1836 14.5845 17.1537 14.6106C17.1229 14.6375 17.0917 14.6447 17.0707 14.6431Z" fill="#96C0FF" stroke="#96C0FF"/>
<path d="M16.9583 13.125V12.625H16.4583H5.29163C4.04882 12.625 3.04163 13.6322 3.04163 14.875V15.4167C3.04163 16.9595 4.29048 18.2083 5.83329 18.2083H14.1666C15.7094 18.2083 16.9583 16.9595 16.9583 15.4167V13.125ZM14.1666 18.4583H5.83329C4.15944 18.4583 2.79163 17.0905 2.79163 15.4167V14.875C2.79163 13.4937 3.91686 12.375 5.29163 12.375H17.0833C17.1134 12.375 17.1447 12.3873 17.1704 12.4129C17.196 12.4386 17.2083 12.4699 17.2083 12.5V15.4167C17.2083 17.0905 15.8405 18.4583 14.1666 18.4583Z" fill="#96C0FF" stroke="#96C0FF"/>
<path d="M13.3333 6.45831H6.66663C6.32496 6.45831 6.04163 6.17498 6.04163 5.83331C6.04163 5.49165 6.32496 5.20831 6.66663 5.20831H13.3333C13.675 5.20831 13.9583 5.49165 13.9583 5.83331C13.9583 6.17498 13.675 6.45831 13.3333 6.45831Z" fill="#96C0FF"/>
<path d="M10.8333 9.375H6.66663C6.32496 9.375 6.04163 9.09167 6.04163 8.75C6.04163 8.40833 6.32496 8.125 6.66663 8.125H10.8333C11.175 8.125 11.4583 8.40833 11.4583 8.75C11.4583 9.09167 11.175 9.375 10.8333 9.375Z" fill="#96C0FF"/>
</svg>
