<svg width="24" height="24" viewBox="0 0 24 24" fill="none" xmlns="http://www.w3.org/2000/svg">
<path d="M12.1499 16.5V18.6" stroke="#96C0FF" stroke-width="1.5" stroke-linecap="round" stroke-linejoin="round"/>
<path d="M7.1499 22H17.1499V21C17.1499 19.9 16.2499 19 15.1499 19H9.1499C8.0499 19 7.1499 19.9 7.1499 21V22V22Z" stroke="#96C0FF" stroke-width="1.5" stroke-miterlimit="10"/>
<path d="M6.1499 22H18.1499" stroke="#96C0FF" stroke-width="1.5" stroke-linecap="round" stroke-linejoin="round"/>
<path d="M12 16C8.13 16 5 12.87 5 9V6C5 3.79 6.79 2 9 2H15C17.21 2 19 3.79 19 6V9C19 12.87 15.87 16 12 16Z" stroke="#96C0FF" stroke-width="1.5" stroke-linecap="round" stroke-linejoin="round"/>
<path d="M5.47004 11.65C4.72004 11.41 4.06004 10.97 3.54004 10.45C2.64004 9.45 2.04004 8.25 2.04004 6.85C2.04004 5.45 3.14004 4.35 4.54004 4.35H5.19004C4.99004 4.81 4.89004 5.32 4.89004 5.85V8.85C4.89004 9.85 5.10004 10.79 5.47004 11.65Z" stroke="#96C0FF" stroke-width="1.5" stroke-linecap="round" stroke-linejoin="round"/>
<path d="M18.53 11.65C19.28 11.41 19.94 10.97 20.46 10.45C21.36 9.45 21.96 8.25 21.96 6.85C21.96 5.45 20.86 4.35 19.46 4.35H18.81C19.01 4.81 19.11 5.32 19.11 5.85V8.85C19.11 9.85 18.9 10.79 18.53 11.65Z" stroke="#96C0FF" stroke-width="1.5" stroke-linecap="round" stroke-linejoin="round"/>
</svg>
