<svg width="16" height="16" viewBox="0 0 16 16" fill="none" xmlns="http://www.w3.org/2000/svg">
<path d="M3.6001 15.4C3.06966 15.4 2.56096 15.1893 2.18588 14.8142C1.81081 14.4391 1.6001 13.9304 1.6001 13.4V4.59998C1.6001 4.06954 1.81081 3.56083 2.18588 3.18576C2.56096 2.81069 3.06966 2.59998 3.6001 2.59998H4.8671C5.04271 2.2958 5.29534 2.04323 5.59956 1.86769C5.87485 1.70884 6.1836 1.61812 6.50009 1.60243C6.55527 1.59969 6.59958 1.55506 6.6051 1.50009C6.62803 1.27156 6.72915 1.05671 6.89299 0.892869C7.08053 0.705332 7.33488 0.599976 7.6001 0.599976H8.4001C8.53142 0.599976 8.66146 0.625841 8.78278 0.676096C8.90411 0.726351 9.01435 0.80001 9.1072 0.892869C9.20006 0.985727 9.27372 1.09597 9.32398 1.21729C9.36145 1.30776 9.38536 1.40307 9.3951 1.50014C9.40062 1.5551 9.4449 1.59972 9.50006 1.60248C9.81639 1.61831 10.125 1.70909 10.4001 1.86794C10.7041 2.04347 10.9566 2.29594 11.1321 2.59998H12.4001C12.9305 2.59998 13.4392 2.81069 13.8143 3.18576C14.1894 3.56083 14.4001 4.06954 14.4001 4.59998V13.4C14.4001 13.9304 14.1894 14.4391 13.8143 14.8142C13.4392 15.1893 12.9305 15.4 12.4001 15.4H3.6001Z" stroke="#96C0FF" stroke-width="1.2"/>
<path d="M11.4001 2.59998C11.4001 3.70455 10.5047 4.59998 9.4001 4.59998H6.6001C5.49553 4.59998 4.6001 3.70455 4.6001 2.59998" stroke="#96C0FF" stroke-width="1.2"/>
<path d="M4 8.27273H6L7.5 7L9 9L10 7.54545L10.5 8.27273H12" stroke="#96C0FF" stroke-linecap="round" stroke-linejoin="round"/>
<path d="M4 11.4H10" stroke="#96C0FF" stroke-linecap="round" stroke-linejoin="round"/>
<path d="M4 13.4H8" stroke="#96C0FF" stroke-linecap="round" stroke-linejoin="round"/>
</svg>
