<svg width="20" height="20" viewBox="0 0 20 20" fill="none" xmlns="http://www.w3.org/2000/svg">
<path d="M14.6166 6.92501C15.7488 6.92501 16.6666 6.0072 16.6666 4.87501C16.6666 3.74283 15.7488 2.82501 14.6166 2.82501C13.4845 2.82501 12.5667 3.74283 12.5667 4.87501C12.5667 6.0072 13.4845 6.92501 14.6166 6.92501Z" stroke="#003E9C" stroke-width="1.5" stroke-miterlimit="10" stroke-linecap="round" stroke-linejoin="round"/>
<path d="M5.38338 6.92501C6.51556 6.92501 7.43337 6.0072 7.43337 4.87501C7.43337 3.74283 6.51556 2.82501 5.38338 2.82501C4.2512 2.82501 3.33337 3.74283 3.33337 4.87501C3.33337 6.0072 4.2512 6.92501 5.38338 6.92501Z" stroke="#003E9C" stroke-width="1.5" stroke-miterlimit="10" stroke-linecap="round" stroke-linejoin="round"/>
<path d="M14.6166 17.175C15.7488 17.175 16.6666 16.2572 16.6666 15.125C16.6666 13.9928 15.7488 13.075 14.6166 13.075C13.4845 13.075 12.5667 13.9928 12.5667 15.125C12.5667 16.2572 13.4845 17.175 14.6166 17.175Z" stroke="#003E9C" stroke-width="1.5" stroke-miterlimit="10" stroke-linecap="round" stroke-linejoin="round"/>
<path d="M5.38338 17.175C6.51556 17.175 7.43337 16.2572 7.43337 15.125C7.43337 13.9928 6.51556 13.075 5.38338 13.075C4.2512 13.075 3.33337 13.9928 3.33337 15.125C3.33337 16.2572 4.2512 17.175 5.38338 17.175Z" stroke="#003E9C" stroke-width="1.5" stroke-miterlimit="10" stroke-linecap="round" stroke-linejoin="round"/>
</svg>
