<svg width="16" height="16" viewBox="0 0 16 16" fill="none" xmlns="http://www.w3.org/2000/svg">
<path d="M8 16C7.48651 16 7.00279 15.7403 6.66046 15.2876L5.54419 13.8033C5.52186 13.7737 5.43256 13.7365 5.39535 13.7291H5.02326C1.92 13.7291 0 12.8905 0 8.71985V5.00928C0 1.72913 1.73395 0 5.02326 0H10.9767C14.266 0 16 1.72913 16 5.00928V8.71985C16 12 14.266 13.7291 10.9767 13.7291H10.6047C10.5451 13.7291 10.493 13.7588 10.4558 13.8033L9.33953 15.2876C8.99721 15.7403 8.51349 16 8 16ZM5.02326 1.11317C2.35907 1.11317 1.11628 2.3525 1.11628 5.00928V8.71985C1.11628 12.0742 2.26977 12.616 5.02326 12.616H5.39535C5.77488 12.616 6.20651 12.8312 6.43721 13.1354L7.55349 14.6197C7.81395 14.961 8.18605 14.961 8.44651 14.6197L9.56279 13.1354C9.80837 12.8089 10.1953 12.616 10.6047 12.616H10.9767C13.6409 12.616 14.8837 11.3766 14.8837 8.71985V5.00928C14.8837 2.3525 13.6409 1.11317 10.9767 1.11317H5.02326Z" fill="#96C0FF"/>
<path d="M8.00005 7.97776C7.5833 7.97776 7.25586 7.64381 7.25586 7.23565C7.25586 6.82748 7.59074 6.49353 8.00005 6.49353C8.40935 6.49353 8.74423 6.82748 8.74423 7.23565C8.74423 7.64381 8.41679 7.97776 8.00005 7.97776Z" fill="#96C0FF"/>
<path d="M10.9766 7.97776C10.5599 7.97776 10.2324 7.64381 10.2324 7.23565C10.2324 6.82748 10.5673 6.49353 10.9766 6.49353C11.3859 6.49353 11.7208 6.82748 11.7208 7.23565C11.7208 7.64381 11.3934 7.97776 10.9766 7.97776Z" fill="#96C0FF"/>
<path d="M5.02348 7.97776C4.60674 7.97776 4.2793 7.64381 4.2793 7.23565C4.2793 6.82748 4.61418 6.49353 5.02348 6.49353C5.43279 6.49353 5.76767 6.82748 5.76767 7.23565C5.76767 7.64381 5.44023 7.97776 5.02348 7.97776Z" fill="#96C0FF"/>
</svg>
