<svg width="20" height="20" viewBox="0 0 20 20" fill="none" xmlns="http://www.w3.org/2000/svg">
<path d="M2.20696 9.15768L2.80354 9.09373C2.7771 8.84707 2.7604 8.60889 2.7604 8.36664C2.7604 4.11775 6.45844 0.6 11.0802 0.6C15.702 0.6 19.4 4.11775 19.4 8.36664C19.4 10.7042 18.3194 12.8581 16.3938 14.3407C16.2253 14.4704 16.1381 14.6796 16.1644 14.8906L16.4805 17.4177C16.4806 17.4184 16.4807 17.419 16.4807 17.4197C16.5278 17.8257 16.3521 18.1973 16.0153 18.4164C15.848 18.5235 15.6533 18.5809 15.4656 18.5809C15.2812 18.5809 15.1011 18.5338 14.9389 18.4353L14.9389 18.4353L14.9338 18.4322L11.2001 16.2173C11.1116 16.1648 11.0111 16.1359 10.9083 16.1335C10.5352 16.1246 10.17 16.0981 9.8284 16.0469L9.82732 16.0467C9.78662 16.0407 9.75497 16.015 9.74075 15.978C9.73268 15.957 9.73262 15.9415 9.73457 15.9304C9.73655 15.919 9.74213 15.9037 9.75729 15.8861C10.4634 15.0626 10.8329 14.0685 10.8329 13.0106C10.8329 10.3833 8.53553 8.32502 5.81025 8.32502C4.78994 8.32502 3.80081 8.60563 2.96269 9.15544C2.93053 9.17505 2.89667 9.17785 2.86172 9.16328C2.822 9.14255 2.80534 9.10916 2.803 9.08887L2.20696 9.15768ZM2.20696 9.15768C2.23489 9.39965 2.39317 9.60442 2.60732 9.7068L16.3408 18.9204C16.8715 18.576 17.1509 17.9804 17.0764 17.3476L16.7598 14.8161C18.8268 13.2247 20 10.898 20 8.36664C20 3.75056 15.9963 0 11.0802 0C6.16407 0 2.1604 3.75056 2.1604 8.36664C2.1604 8.63653 2.17902 8.8971 2.20696 9.15768ZM10.5343 15.0595C10.4378 15.2524 10.4522 15.4821 10.572 15.6614C10.6904 15.8385 10.8937 15.9394 11.106 15.9269C11.1071 15.9275 11.1087 15.9284 11.1106 15.9297C11.1192 15.9354 11.128 15.941 11.1369 15.9462L15.0323 18.2601C15.1837 18.3538 15.3566 18.3992 15.5343 18.3839C15.6995 18.3698 15.8272 18.3069 15.9104 18.2529C16.0937 18.1365 16.3414 17.8607 16.284 17.4372L15.9222 14.5072C15.9181 14.4592 15.9387 14.4209 15.9652 14.4004C18.0113 12.9639 19.2034 10.7585 19.2034 8.34801C19.2034 4.13094 15.5205 0.777361 11.0802 0.777361C6.80639 0.777361 3.23299 3.89091 2.96765 7.88953C2.95408 8.09398 3.04579 8.29121 3.21085 8.41261C3.37591 8.53401 3.59152 8.56278 3.78264 8.48891C4.41449 8.24471 5.09548 8.11045 5.80095 8.11045C8.71603 8.11045 11.0202 10.3319 11.0202 12.992H11.0202L11.0203 12.9988C11.0284 13.7162 10.8575 14.4133 10.5343 15.0595ZM15.6666 17.2415L15.6593 17.237C15.6618 17.2385 15.6642 17.24 15.6666 17.2415ZM15.095 17.5995L15.0951 17.6L15.095 17.5995Z" stroke="#96C0FF" stroke-width="1.2" stroke-linejoin="round"/>
<path d="M2.72986 19.2927L2.72712 19.2909C2.49862 19.1437 2.38319 18.9005 2.41135 18.6385L2.59684 17.2109C2.62361 17.0048 2.54186 16.7996 2.38074 16.6684C1.2575 15.7536 0.6 14.4046 0.6 13.0015C0.6 11.4007 1.43728 9.89366 2.86428 8.98447L2.86429 8.98449L2.86893 8.98147C3.72843 8.42264 4.75028 8.1199 5.81928 8.1199C8.73437 8.1199 11.0386 10.3414 11.0386 13.0015C11.0386 14.0849 10.644 15.1571 9.9162 16.0085L9.91613 16.0085L9.90951 16.0165C8.97408 17.1501 7.5664 17.8234 5.99548 17.8741C5.89424 17.8773 5.79548 17.9062 5.7084 17.9579L3.43783 19.3066C3.43766 19.3067 3.4375 19.3068 3.43733 19.3069C3.32993 19.3702 3.21295 19.4 3.09121 19.4C2.96206 19.4 2.84371 19.3669 2.72986 19.2927ZM3.53723 19.0083L5.7599 17.6883C5.79296 17.6693 5.81025 17.6685 5.81025 17.6684C7.34328 17.6684 8.81119 17.0132 9.75287 15.8709C10.4518 15.0439 10.8326 14.0533 10.8326 12.9921C10.8326 10.3732 8.53432 8.31589 5.80998 8.31589C4.78872 8.31589 3.79869 8.59696 2.96005 9.14781C1.60972 10.0139 0.787322 11.4443 0.787322 13.0015C0.787322 14.4999 1.52377 15.863 2.79632 16.7336C2.82447 16.7537 2.84317 16.7875 2.83949 16.8331L2.63578 18.4158C2.60648 18.6434 2.70956 18.8677 2.90132 18.9938C3.09308 19.1198 3.33993 19.1254 3.53723 19.0083Z" stroke="#96C0FF" stroke-width="1.2" stroke-linejoin="round"/>
<path d="M7.5 6.25H15" stroke="#96C0FF" stroke-width="1.2" stroke-linecap="round"/>
<path d="M10 10L15 10" stroke="#96C0FF" stroke-width="1.2" stroke-linecap="round"/>
<path d="M3.75 11.875H7.5" stroke="#96C0FF" stroke-width="1.2" stroke-linecap="round"/>
<path d="M5 14.375L7.5 14.375" stroke="#96C0FF" stroke-width="1.2" stroke-linecap="round"/>
</svg>
