<svg width="21" height="20" viewBox="0 0 21 20" fill="none" xmlns="http://www.w3.org/2000/svg">
<path d="M4.66667 8.33337C3.75 8.33337 3 9.08337 3 10C3 10.9167 3.75 11.6667 4.66667 11.6667C5.58333 11.6667 6.33333 10.9167 6.33333 10C6.33333 9.08337 5.58333 8.33337 4.66667 8.33337Z" stroke="#0065FF" stroke-width="1.5"/>
<path d="M16.3333 8.33337C15.4166 8.33337 14.6666 9.08337 14.6666 10C14.6666 10.9167 15.4166 11.6667 16.3333 11.6667C17.25 11.6667 18 10.9167 18 10C18 9.08337 17.25 8.33337 16.3333 8.33337Z" stroke="#0065FF" stroke-width="1.5"/>
<path d="M10.5 8.33337C9.58337 8.33337 8.83337 9.08337 8.83337 10C8.83337 10.9167 9.58337 11.6667 10.5 11.6667C11.4167 11.6667 12.1667 10.9167 12.1667 10C12.1667 9.08337 11.4167 8.33337 10.5 8.33337Z" stroke="#96C0FF" stroke-width="1.5"/>
</svg>
