<svg width="16" height="16" viewBox="0 0 16 16" fill="none" xmlns="http://www.w3.org/2000/svg">
<path d="M10.435 4.42132L4.23505 10.7255C4.02979 10.9521 3.91951 11.2488 3.92704 11.5544C3.93456 11.86 4.05932 12.1511 4.27547 12.3672C4.49163 12.5834 4.78264 12.7081 5.08824 12.7156C5.39384 12.7232 5.69063 12.6129 5.91717 12.4076L13.308 4.91256C13.7186 4.45949 13.9391 3.86591 13.9241 3.25471C13.909 2.6435 13.6595 2.0615 13.2272 1.62918C12.7949 1.19686 12.2129 0.94735 11.6017 0.932302C10.9905 0.917253 10.3969 1.13782 9.94381 1.54834L2.55294 9.04341C1.88376 9.71259 1.50781 10.6202 1.50781 11.5666C1.50781 12.5129 1.88376 13.4206 2.55294 14.0897C3.22213 14.7589 4.12974 15.1349 5.07611 15.1349C6.02248 15.1349 6.93009 14.7589 7.59928 14.0897L13.71 7.99395" stroke="#96C0FF" stroke-width="1.2" stroke-linecap="round" stroke-linejoin="round"/>
</svg>
