<svg width="20" height="20" viewBox="0 0 20 20" fill="none" xmlns="http://www.w3.org/2000/svg">
<path d="M7.22656 11.9416C7.22656 13.0166 8.05156 13.8832 9.07656 13.8832H11.1682C12.0599 13.8832 12.7849 13.1249 12.7849 12.1916C12.7849 11.1749 12.3432 10.8166 11.6849 10.5832L8.32656 9.41658C7.66823 9.18324 7.22656 8.82491 7.22656 7.80824C7.22656 6.87491 7.95156 6.11658 8.84323 6.11658H10.9349C11.9599 6.11658 12.7849 6.98324 12.7849 8.05824" stroke="#96C0FF" stroke-width="1.5" stroke-linecap="round" stroke-linejoin="round"/>
<path d="M10 5V15" stroke="#96C0FF" stroke-width="1.5" stroke-linecap="round" stroke-linejoin="round"/>
<path d="M12.5 18.3333H7.49996C3.33329 18.3333 1.66663 16.6666 1.66663 12.5V7.49996C1.66663 3.33329 3.33329 1.66663 7.49996 1.66663H12.5C16.6666 1.66663 18.3333 3.33329 18.3333 7.49996V12.5C18.3333 16.6666 16.6666 18.3333 12.5 18.3333Z" stroke="#96C0FF" stroke-width="1.5" stroke-linecap="round" stroke-linejoin="round"/>
</svg>
