<svg width="20" height="20" viewBox="0 0 20 20" fill="none" xmlns="http://www.w3.org/2000/svg">
<path d="M12.5432 16.286L12.5432 16.2859L12.5301 16.2849C12.1293 16.254 11.6652 16.176 11.1778 16.0562L11.1742 16.0553L9.7742 15.722L9.77344 15.7218C7.90875 15.2809 6.78651 14.5923 6.20528 13.6544C5.62418 12.7167 5.50842 11.4079 5.94516 9.54767L5.94525 9.54726L6.76192 6.05559L6.76217 6.05452C6.93974 5.28776 7.14516 4.68623 7.38894 4.19866L7.38897 4.19868L7.39169 4.19307C8.0406 2.85375 8.95707 2.27858 9.91875 2.06527C10.9134 1.84465 11.9954 2.00353 12.9523 2.22846L12.953 2.22862L14.344 2.55346C14.3441 2.55348 14.3442 2.55351 14.3443 2.55353C16.2335 2.99762 17.3167 3.6745 17.9085 4.62194C18.4926 5.57024 18.6236 6.84006 18.18 8.72732L18.1799 8.72759L17.3633 12.2107C17.3633 12.2108 17.3633 12.2108 17.3633 12.2109C17.0168 13.6852 16.4973 14.7047 15.8221 15.3543C15.16 15.9914 14.3024 16.3167 13.1751 16.3167C12.9716 16.3167 12.7642 16.3089 12.5432 16.286ZM7.00532 6.10924L7.00532 6.10924L7.00487 6.11118L6.18837 9.60213C6.18835 9.60221 6.18833 9.6023 6.18831 9.60238C5.80945 11.2116 5.79999 12.5116 6.42412 13.5178C7.04785 14.5233 8.21757 15.0952 9.82592 15.4781L11.2247 15.8112C11.225 15.8112 11.2252 15.8113 11.2255 15.8114C11.698 15.9251 12.1463 15.9957 12.5537 16.0312C13.765 16.151 14.7694 15.9534 15.5534 15.2709C16.3168 14.6063 16.7875 13.5514 17.112 12.1554C17.112 12.1552 17.112 12.1551 17.1121 12.1549L17.9285 8.67252L17.9287 8.67192C18.3124 7.02603 18.2988 5.7347 17.692 4.75369C17.085 3.77249 15.9366 3.18069 14.28 2.79638C14.2799 2.79636 14.2798 2.79634 14.2797 2.79632L12.8922 2.4723C12.8916 2.47216 12.891 2.47202 12.8905 2.47188C12.1727 2.29903 11.516 2.20839 10.9334 2.20839C10.1676 2.20839 9.49957 2.36726 8.93186 2.72807C8.36473 3.08851 7.94096 3.623 7.61606 4.30016C7.37983 4.79088 7.17775 5.38505 7.00532 6.10924Z" fill="#96C0FF" stroke="#96C0FF"/>
<path d="M3.03412 14.3963L3.03398 14.3958L1.9675 11.1048C1.96747 11.1046 1.96743 11.1045 1.96739 11.1044C1.39339 9.32565 1.40152 8.0476 1.88705 7.09597C2.37246 6.14457 3.40043 5.3913 5.17057 4.81737C5.17067 4.81734 5.17077 4.81731 5.17087 4.81728L6.48365 4.39353C6.91506 4.26083 7.21179 4.17835 7.46782 4.13446L7.47625 4.13301L7.48464 4.13128C7.51349 4.12531 7.53504 4.12876 7.5506 4.13472C7.5664 4.14076 7.58304 4.15205 7.59791 4.17218C7.62969 4.21517 7.63639 4.26932 7.61425 4.3203C7.37791 4.80388 7.17636 5.39826 7.01273 6.12121L6.19664 9.61039C6.19659 9.6106 6.19654 9.61082 6.19649 9.61103C6.19649 9.61106 6.19648 9.61108 6.19648 9.61111C5.81773 11.2201 5.80832 12.52 6.4324 13.526C7.05612 14.5316 8.22584 15.1034 9.83419 15.4864L11.233 15.8194C11.2332 15.8195 11.2335 15.8196 11.2338 15.8196C11.7065 15.9334 12.1551 16.004 12.5627 16.0396C12.6168 16.045 12.6635 16.0787 12.6841 16.1402C12.6951 16.1931 12.6746 16.2422 12.633 16.2716C12.1352 16.6106 11.4917 16.9088 10.646 17.1826L10.6437 17.1834L9.33051 17.6156C8.40519 17.905 7.6251 18.0416 6.94167 18.0416C5.98184 18.0416 5.2296 17.7586 4.61301 17.193C3.98258 16.6146 3.45764 15.7072 3.03412 14.3963ZM6.95935 5.33632L7.25869 4.40504L6.32854 4.70788L5.25503 5.0574C5.25477 5.05748 5.2545 5.05757 5.25424 5.05765C3.73334 5.54768 2.64797 6.19153 2.12529 7.21787C1.60304 8.24334 1.71765 9.50363 2.20729 11.0279L2.20769 11.0291L3.27435 14.3208L3.27448 14.3212C3.76869 15.8421 4.41464 16.9287 5.43993 17.4534C6.4654 17.9782 7.72378 17.8659 9.24498 17.3759L9.24498 17.3759L9.24798 17.3749L10.5646 16.9416L10.5665 16.941C10.5979 16.9305 10.6262 16.9202 10.6482 16.9122L10.65 16.9115C10.6736 16.903 10.6905 16.8969 10.7081 16.891L12.3785 16.3342L10.6648 15.93L9.78172 15.7217C9.78163 15.7217 9.78154 15.7217 9.78144 15.7217C7.91692 15.2808 6.79476 14.5922 6.21356 13.6543C5.63246 12.7166 5.51669 11.4078 5.95343 9.5476L5.95353 9.54719L6.7702 6.05552L6.77025 6.05553L6.77179 6.0485C6.82773 5.79276 6.89049 5.55054 6.95935 5.33632Z" fill="#96C0FF" stroke="#96C0FF"/>
<path d="M14.575 8.75839C14.525 8.75839 14.475 8.75006 14.4167 8.74173L10.375 7.71673C10.0417 7.63339 9.84168 7.29173 9.92502 6.95839C10.0084 6.62506 10.35 6.42506 10.6834 6.50839L14.725 7.53339C15.0584 7.61673 15.2584 7.95839 15.175 8.29173C15.1084 8.56673 14.85 8.75839 14.575 8.75839Z" fill="#96C0FF"/>
<path d="M12.1333 11.575C12.0833 11.575 12.0333 11.5667 11.9749 11.5584L9.54994 10.9417C9.21661 10.8584 9.01661 10.5167 9.09994 10.1834C9.18328 9.85003 9.52494 9.65003 9.85828 9.73337L12.2833 10.35C12.6166 10.4334 12.8166 10.775 12.7333 11.1084C12.6666 11.3917 12.4166 11.575 12.1333 11.575Z" fill="#96C0FF"/>
</svg>
