<svg width="821" height="164" viewBox="0 0 821 164" fill="none" xmlns="http://www.w3.org/2000/svg">
<rect width="821" height="164" rx="48" fill="white"/>
<path d="M183 125.75H179C173.57 125.75 171.25 123.43 171.25 118V112C171.25 106.57 173.57 104.25 179 104.25H183C188.43 104.25 190.75 106.57 190.75 112V118C190.75 123.43 188.43 125.75 183 125.75ZM179 105.75C174.39 105.75 172.75 107.39 172.75 112V118C172.75 122.61 174.39 124.25 179 124.25H183C187.61 124.25 189.25 122.61 189.25 118V112C189.25 107.39 187.61 105.75 183 105.75H179Z" fill="#96C0FF"/>
<path d="M184 113.83H178C176.76 113.83 175.75 112.82 175.75 111.58V110.58C175.75 109.34 176.76 108.33 178 108.33H184C185.24 108.33 186.25 109.34 186.25 110.58V111.58C186.25 112.82 185.24 113.83 184 113.83ZM178 109.83C177.59 109.83 177.25 110.17 177.25 110.58V111.58C177.25 111.99 177.59 112.33 178 112.33H184C184.41 112.33 184.75 111.99 184.75 111.58V110.58C184.75 110.17 184.41 109.83 184 109.83H178Z" fill="#96C0FF"/>
<path d="M177.15 117.92C177.02 117.92 176.89 117.89 176.77 117.84C176.65 117.79 176.54 117.72 176.45 117.63C176.26 117.44 176.16 117.19 176.16 116.92C176.16 116.79 176.18 116.66 176.23 116.54C176.28 116.41 176.35 116.31 176.45 116.21C176.49 116.17 176.54 116.12 176.6 116.09C176.65 116.05 176.71 116.02 176.77 116C176.83 115.97 176.9 115.95 176.96 115.94C177.28 115.87 177.63 115.98 177.86 116.21C177.95 116.3 178.03 116.41 178.08 116.54C178.13 116.66 178.16 116.79 178.16 116.92C178.16 117.19 178.05 117.44 177.86 117.63C177.67 117.82 177.42 117.92 177.15 117.92Z" fill="#96C0FF"/>
<path d="M181.16 117.92C180.89 117.92 180.64 117.82 180.45 117.63C180.26 117.44 180.16 117.19 180.16 116.92C180.16 116.79 180.18 116.66 180.23 116.54C180.28 116.41 180.35 116.31 180.45 116.21C180.49 116.17 180.54 116.12 180.6 116.09C180.65 116.05 180.71 116.02 180.77 116C180.83 115.97 180.9 115.95 180.96 115.94C181.15 115.9 181.35 115.92 181.54 116C181.66 116.05 181.77 116.12 181.86 116.21C181.95 116.31 182.03 116.41 182.08 116.54C182.13 116.66 182.16 116.79 182.16 116.92C182.16 117.19 182.05 117.44 181.86 117.63C181.67 117.82 181.42 117.92 181.16 117.92Z" fill="#96C0FF"/>
<path d="M185.15 117.92C185.02 117.92 184.89 117.89 184.77 117.84C184.65 117.79 184.54 117.72 184.45 117.63C184.35 117.53 184.28 117.42 184.23 117.3C184.18 117.18 184.16 117.05 184.16 116.92C184.16 116.79 184.18 116.66 184.23 116.54C184.28 116.41 184.35 116.31 184.45 116.21C184.82 115.84 185.49 115.84 185.86 116.21C186.05 116.4 186.16 116.66 186.16 116.92C186.16 117.19 186.05 117.44 185.86 117.63C185.68 117.81 185.43 117.92 185.15 117.92Z" fill="#96C0FF"/>
<path d="M177.16 121.92C176.89 121.92 176.64 121.82 176.45 121.63C176.26 121.44 176.15 121.19 176.15 120.92C176.15 120.66 176.26 120.4 176.45 120.21C176.49 120.17 176.55 120.12 176.6 120.09C176.65 120.05 176.71 120.02 176.77 120C176.83 119.97 176.9 119.95 176.96 119.94C177.29 119.88 177.63 119.98 177.86 120.21C177.91 120.26 177.95 120.31 177.99 120.36C178.02 120.42 178.05 120.48 178.08 120.54C178.1 120.6 178.12 120.66 178.14 120.72C178.15 120.79 178.16 120.85 178.16 120.92C178.16 121.19 178.05 121.44 177.86 121.63C177.67 121.82 177.42 121.92 177.16 121.92Z" fill="#96C0FF"/>
<path d="M181.16 121.92C180.89 121.92 180.64 121.82 180.45 121.63C180.26 121.44 180.15 121.19 180.15 120.92C180.15 120.66 180.26 120.4 180.45 120.21C180.68 119.98 181.03 119.88 181.35 119.94C181.41 119.95 181.48 119.97 181.54 120C181.6 120.02 181.66 120.05 181.71 120.09C181.76 120.12 181.81 120.17 181.86 120.21C182.05 120.4 182.15 120.66 182.15 120.92C182.15 121.19 182.05 121.44 181.86 121.63C181.67 121.82 181.42 121.92 181.16 121.92Z" fill="#96C0FF"/>
<path d="M185.15 121.92C184.89 121.92 184.64 121.82 184.45 121.63C184.26 121.44 184.16 121.19 184.16 120.92C184.16 120.66 184.26 120.4 184.45 120.21C184.54 120.12 184.65 120.05 184.77 120C185.14 119.85 185.59 119.93 185.86 120.21C186.05 120.4 186.15 120.66 186.15 120.92C186.15 121.19 186.05 121.44 185.86 121.63C185.77 121.72 185.66 121.79 185.54 121.84C185.42 121.89 185.29 121.92 185.15 121.92Z" fill="#96C0FF"/>
<path d="M120.97 125.75H112.97C109.55 125.75 108.22 124.42 108.22 121V113C108.22 112.59 108.56 112.25 108.97 112.25H124.97C125.38 112.25 125.72 112.59 125.72 113V121C125.72 124.42 124.39 125.75 120.97 125.75ZM109.72 113.75V121C109.72 123.58 110.39 124.25 112.97 124.25H120.97C123.55 124.25 124.22 123.58 124.22 121V113.75H109.72Z" fill="#96C0FF"/>
<path d="M124.5 113.75H109.5C107.75 113.75 106.75 112.75 106.75 111V110C106.75 108.25 107.75 107.25 109.5 107.25H124.5C126.2 107.25 127.25 108.3 127.25 110V111C127.25 112.7 126.2 113.75 124.5 113.75ZM109.5 108.75C108.59 108.75 108.25 109.09 108.25 110V111C108.25 111.91 108.59 112.25 109.5 112.25H124.5C125.38 112.25 125.75 111.88 125.75 111V110C125.75 109.12 125.38 108.75 124.5 108.75H109.5Z" fill="#96C0FF"/>
<path d="M116.64 108.75H111.12C110.91 108.75 110.71 108.66 110.57 108.51C109.96 107.84 109.98 106.81 110.62 106.17L112.04 104.75C112.7 104.09 113.79 104.09 114.45 104.75L117.17 107.47C117.38 107.68 117.45 108.01 117.33 108.29C117.22 108.57 116.95 108.75 116.64 108.75ZM111.67 107.25H114.84L113.39 105.81C113.31 105.73 113.18 105.73 113.1 105.81L111.68 107.23C111.68 107.24 111.67 107.24 111.67 107.25Z" fill="#96C0FF"/>
<path d="M122.87 108.75H117.35C117.05 108.75 116.77 108.57 116.66 108.29C116.54 108.01 116.61 107.69 116.82 107.47L119.54 104.75C120.2 104.09 121.29 104.09 121.95 104.75L123.37 106.17C124.01 106.81 124.04 107.84 123.42 108.51C123.28 108.66 123.08 108.75 122.87 108.75ZM119.17 107.25H122.34C122.33 107.24 122.33 107.24 122.32 107.23L120.9 105.81C120.82 105.73 120.69 105.73 120.61 105.81L119.17 107.25Z" fill="#96C0FF"/>
<path d="M114.94 119.9C114.66 119.9 114.37 119.83 114.11 119.69C113.54 119.38 113.19 118.79 113.19 118.15V113C113.19 112.59 113.53 112.25 113.94 112.25H119.98C120.39 112.25 120.73 112.59 120.73 113V118.13C120.73 118.78 120.38 119.37 119.81 119.67C119.24 119.98 118.55 119.94 118.01 119.58L117.12 118.98C117.04 118.92 116.93 118.92 116.84 118.98L115.9 119.6C115.61 119.8 115.27 119.9 114.94 119.9ZM114.69 113.75V118.14C114.69 118.27 114.77 118.33 114.82 118.36C114.87 118.39 114.97 118.42 115.08 118.35L116.02 117.73C116.61 117.34 117.37 117.34 117.95 117.73L118.84 118.33C118.95 118.4 119.05 118.37 119.1 118.34C119.15 118.31 119.23 118.25 119.23 118.12V113.74H114.69V113.75Z" fill="#96C0FF"/>
<path d="M53.0099 120C52.1599 120 51.2999 119.78 50.6299 119.35L44.6099 115.42C43.4899 114.69 42.8199 113.46 42.8199 112.12C42.8199 110.78 43.4899 109.55 44.6099 108.82L50.6399 104.9C51.9799 104.03 54.0699 104.03 55.3999 104.91L61.3899 108.84C62.4999 109.57 63.1699 110.8 63.1699 112.13C63.1699 113.46 62.4999 114.69 61.3899 115.42L55.3999 119.35C54.7299 119.79 53.8699 120 53.0099 120ZM53.0099 105.75C52.4399 105.75 51.8699 105.88 51.4599 106.16L45.4399 110.08C44.7399 110.54 44.3299 111.28 44.3299 112.12C44.3299 112.96 44.7299 113.7 45.4399 114.16L51.4599 118.09C52.2899 118.63 53.7499 118.63 54.5799 118.09L60.5699 114.16C61.2699 113.7 61.6699 112.96 61.6699 112.12C61.6699 111.28 61.2699 110.54 60.5699 110.08L54.5799 106.15C54.1599 105.89 53.5899 105.75 53.0099 105.75Z" fill="#96C0FF"/>
<path d="M53.0001 125.75C52.5601 125.75 52.1101 125.69 51.7501 125.57L48.5601 124.51C47.0501 124.01 45.8601 122.36 45.8701 120.77L45.8801 116.08C45.8801 115.67 46.2201 115.33 46.6301 115.33C47.0401 115.33 47.3801 115.67 47.3801 116.08L47.3701 120.77C47.3701 121.71 48.1501 122.79 49.0401 123.09L52.2301 124.15C52.6301 124.28 53.3701 124.28 53.7701 124.15L56.9601 123.09C57.8501 122.79 58.6301 121.71 58.6301 120.78V116.14C58.6301 115.73 58.9701 115.39 59.3801 115.39C59.7901 115.39 60.1301 115.73 60.1301 116.14V120.78C60.1301 122.37 58.9501 124.01 57.4401 124.52L54.2501 125.58C53.8901 125.69 53.4401 125.75 53.0001 125.75Z" fill="#96C0FF"/>
<path d="M62.3999 118.75C61.9899 118.75 61.6499 118.41 61.6499 118V112C61.6499 111.59 61.9899 111.25 62.3999 111.25C62.8099 111.25 63.1499 111.59 63.1499 112V118C63.1499 118.41 62.8099 118.75 62.3999 118.75Z" fill="#96C0FF"/>
<path d="M760.81 59.18C760.55 59.18 760.28 59.17 759.99 59.14C759.47 59.1 758.88 59 758.27 58.85L756.59 58.45C751.98 57.36 750.47 54.92 751.55 50.32L752.53 46.13C752.75 45.18 753.01 44.41 753.33 43.77C755.05 40.22 758.34 40.54 760.68 41.09L762.35 41.48C764.69 42.03 766.17 42.9 767 44.23C767.82 45.56 767.95 47.27 767.4 49.61L766.42 53.79C765.56 57.45 763.77 59.18 760.81 59.18ZM758.12 42.25C756.45 42.25 755.39 42.94 754.68 44.42C754.42 44.96 754.19 45.63 753.99 46.47L753.01 50.66C752.12 54.44 753.15 56.09 756.93 56.99L758.61 57.39C759.15 57.52 759.66 57.6 760.12 57.64C762.84 57.91 764.19 56.72 764.95 53.45L765.93 49.27C766.38 47.34 766.32 45.99 765.72 45.02C765.12 44.05 763.94 43.39 762 42.94L760.33 42.55C759.5 42.35 758.76 42.25 758.12 42.25Z" fill="#96C0FF"/>
<path d="M753.33 61.25C750.76 61.25 749.12 59.71 748.07 56.46L746.79 52.51C745.37 48.11 746.64 45.63 751.02 44.21L752.6 43.7C753.12 43.54 753.51 43.43 753.86 43.37C754.15 43.31 754.43 43.42 754.6 43.65C754.77 43.88 754.8 44.18 754.68 44.44C754.42 44.97 754.19 45.64 754 46.48L753.02 50.67C752.13 54.45 753.16 56.1 756.94 57L758.62 57.4C759.16 57.53 759.67 57.61 760.13 57.65C760.45 57.68 760.71 57.9 760.8 58.21C760.88 58.52 760.76 58.84 760.5 59.02C759.84 59.47 759.01 59.85 757.96 60.19L756.38 60.71C755.23 61.07 754.23 61.25 753.33 61.25ZM752.78 45.22L751.49 45.64C747.92 46.79 747.07 48.47 748.22 52.05L749.5 56C750.66 59.57 752.34 60.43 755.91 59.28L757.49 58.76C757.55 58.74 757.6 58.72 757.66 58.7L756.6 58.45C751.99 57.36 750.48 54.92 751.56 50.32L752.54 46.13C752.61 45.81 752.69 45.5 752.78 45.22Z" fill="#96C0FF"/>
<path d="M762.49 49.51C762.43 49.51 762.37 49.5 762.3 49.49L757.45 48.26C757.05 48.16 756.81 47.75 756.91 47.35C757.01 46.95 757.42 46.71 757.82 46.81L762.67 48.04C763.07 48.14 763.31 48.55 763.21 48.95C763.13 49.28 762.82 49.51 762.49 49.51Z" fill="#96C0FF"/>
<path d="M759.56 52.89C759.5 52.89 759.44 52.88 759.37 52.87L756.46 52.13C756.06 52.03 755.82 51.62 755.92 51.22C756.02 50.82 756.43 50.58 756.83 50.68L759.74 51.42C760.14 51.52 760.38 51.93 760.28 52.33C760.2 52.67 759.9 52.89 759.56 52.89Z" fill="#96C0FF"/>
<path d="M696.81 59.18C696.55 59.18 696.28 59.17 695.99 59.14C695.47 59.1 694.88 59 694.27 58.85L692.59 58.45C687.98 57.36 686.47 54.92 687.55 50.32L688.53 46.13C688.75 45.18 689.01 44.41 689.33 43.77C691.05 40.22 694.34 40.54 696.68 41.09L698.35 41.48C700.69 42.03 702.17 42.9 703 44.23C703.82 45.56 703.95 47.27 703.4 49.61L702.42 53.79C701.56 57.45 699.77 59.18 696.81 59.18ZM694.12 42.25C692.45 42.25 691.39 42.94 690.68 44.42C690.42 44.96 690.19 45.63 689.99 46.47L689.01 50.66C688.12 54.44 689.15 56.09 692.93 56.99L694.61 57.39C695.15 57.52 695.66 57.6 696.12 57.64C698.83 57.91 700.19 56.72 700.95 53.45L701.93 49.27C702.38 47.34 702.32 45.99 701.72 45.02C701.12 44.05 699.94 43.39 698 42.94L696.33 42.55C695.5 42.35 694.76 42.25 694.12 42.25Z" fill="#96C0FF"/>
<path d="M689.33 61.25C686.76 61.25 685.12 59.71 684.07 56.46L682.79 52.51C681.37 48.11 682.64 45.63 687.02 44.21L688.6 43.7C689.12 43.54 689.51 43.43 689.86 43.37C690.14 43.31 690.43 43.42 690.6 43.65C690.77 43.88 690.8 44.18 690.68 44.44C690.42 44.97 690.19 45.64 690 46.48L689.02 50.67C688.13 54.45 689.16 56.1 692.94 57L694.62 57.4C695.16 57.53 695.67 57.61 696.13 57.65C696.45 57.68 696.71 57.9 696.8 58.21C696.88 58.52 696.76 58.84 696.5 59.02C695.84 59.47 695.01 59.85 693.96 60.19L692.38 60.71C691.23 61.07 690.23 61.25 689.33 61.25ZM688.78 45.22L687.49 45.64C683.92 46.79 683.07 48.47 684.22 52.05L685.5 56C686.66 59.57 688.34 60.43 691.91 59.28L693.49 58.76C693.55 58.74 693.6 58.72 693.66 58.7L692.6 58.45C687.99 57.36 686.48 54.92 687.56 50.32L688.54 46.13C688.61 45.81 688.69 45.5 688.78 45.22Z" fill="#96C0FF"/>
<path d="M630.05 58.42C629.51 58.42 628.94 58.37 628.32 58.27L623.63 57.53C622.15 57.3 621.01 56.89 620.16 56.29C617.97 54.77 618.1 52.16 618.38 50.33L619.12 45.64C619.8 41.34 622.02 39.73 626.32 40.4L631.01 41.14C633.22 41.49 636.19 42.38 636.38 46.11C636.42 46.75 636.38 47.48 636.24 48.34L635.51 53.03C634.93 56.7 633.22 58.42 630.05 58.42ZM624.53 41.75C622.15 41.75 621.07 42.96 620.6 45.88L619.86 50.57C619.4 53.52 620.24 54.52 621.02 55.07C621.68 55.54 622.61 55.86 623.86 56.05L628.55 56.79C632.04 57.34 633.48 56.29 634.03 52.79L634.76 48.1C634.88 47.35 634.92 46.72 634.88 46.19V46.18C634.77 44.08 633.58 43.05 630.77 42.61L626.09 41.88C625.51 41.79 625 41.75 624.53 41.75Z" fill="#96C0FF"/>
<path d="M631.68 61.75C630.83 61.75 629.87 61.57 628.76 61.2L624.25 59.7C621.68 58.85 620.29 57.63 619.87 55.85C619.8 55.55 619.92 55.23 620.18 55.06C620.44 54.89 620.78 54.89 621.03 55.07C621.69 55.54 622.61 55.86 623.86 56.05L628.55 56.79C632.04 57.34 633.48 56.29 634.03 52.79L634.76 48.1C634.88 47.35 634.92 46.72 634.88 46.19C634.87 45.93 635 45.67 635.23 45.52C635.46 45.37 635.75 45.36 635.99 45.49C638.67 46.92 639.38 49.21 638.22 52.71L636.72 57.22C636.01 59.34 635.08 60.64 633.78 61.29C633.15 61.6 632.46 61.75 631.68 61.75ZM622.73 57.36C623.21 57.68 623.85 57.99 624.72 58.28L629.23 59.78C630.95 60.35 632.18 60.4 633.1 59.95C634.02 59.49 634.72 58.47 635.29 56.75L636.79 52.24C637.61 49.76 637.29 48.44 636.34 47.55C636.32 47.8 636.28 48.06 636.24 48.34L635.51 53.03C634.83 57.33 632.61 58.94 628.31 58.28L623.62 57.54C623.31 57.48 623.01 57.42 622.73 57.36Z" fill="#96C0FF"/>
<path d="M625.24 48.72C623.87 48.72 622.75 47.6 622.75 46.23C622.75 44.86 623.87 43.74 625.24 43.74C626.61 43.74 627.73 44.86 627.73 46.23C627.73 47.6 626.61 48.72 625.24 48.72ZM625.24 45.25C624.7 45.25 624.25 45.69 624.25 46.24C624.25 46.79 624.69 47.23 625.24 47.23C625.78 47.23 626.23 46.79 626.23 46.24C626.23 45.69 625.78 45.25 625.24 45.25Z" fill="#96C0FF"/>
<path d="M568.31 54.02C567.73 54.02 567.1 53.83 566.47 53.44L565.15 52.64C565.09 52.6 564.91 52.6 564.85 52.64L563.53 53.44C562.45 54.1 561.39 54.2 560.54 53.72C559.71 53.25 559.25 52.31 559.25 51.08V44.03C559.25 41.59 560.58 40.25 563 40.25H567C569.42 40.25 570.75 41.59 570.75 44.03V51.08C570.75 52.32 570.29 53.26 569.46 53.72C569.11 53.92 568.72 54.02 568.31 54.02ZM565 51.11C565.33 51.11 565.66 51.19 565.93 51.35L567.25 52.15C567.84 52.51 568.38 52.6 568.72 52.41C569.05 52.22 569.24 51.73 569.24 51.07V44.03C569.24 42.43 568.57 41.75 566.99 41.75H562.99C561.41 41.75 560.74 42.43 560.74 44.03V51.08C560.74 51.74 560.93 52.23 561.26 52.42C561.6 52.61 562.14 52.52 562.73 52.16L564.05 51.36C564.34 51.19 564.67 51.11 565 51.11Z" fill="#96C0FF"/>
<path d="M568 61.75H562C556.57 61.75 554.25 59.41 554.25 53.93V50.9C554.25 46.24 555.93 43.88 559.69 43.25C560.09 43.18 560.48 43.46 560.55 43.87C560.62 44.28 560.34 44.66 559.93 44.73C556.92 45.23 555.74 46.96 555.74 50.9V53.93C555.74 58.54 557.43 60.25 561.99 60.25H567.99C572.55 60.25 574.24 58.54 574.24 53.93V50.9C574.24 46.9 573.02 45.17 569.88 44.7C569.47 44.64 569.19 44.26 569.25 43.85C569.31 43.44 569.69 43.16 570.1 43.22C574 43.8 575.74 46.16 575.74 50.9V53.93C575.75 59.41 573.43 61.75 568 61.75Z" fill="#96C0FF"/>
<path d="M501 61.08C500.7 61.08 500.4 61.01 500.15 60.87C498.28 59.85 494.99 58.77 492.93 58.5L492.64 58.46C491.33 58.3 490.25 57.07 490.25 55.74V43.66C490.25 42.87 490.56 42.15 491.13 41.63C491.7 41.11 492.44 40.86 493.22 40.93C495.42 41.1 498.74 42.2 500.62 43.38L500.86 43.52C500.93 43.56 501.08 43.56 501.14 43.53L501.3 43.43C503.18 42.25 506.5 41.13 508.71 40.94C508.73 40.94 508.81 40.94 508.83 40.94C509.56 40.87 510.31 41.13 510.87 41.65C511.44 42.17 511.75 42.89 511.75 43.68V55.75C511.75 57.09 510.67 58.31 509.35 58.47L509.02 58.51C506.96 58.78 503.66 59.87 501.83 60.88C501.59 61.02 501.3 61.08 501 61.08ZM492.98 42.42C492.66 42.42 492.37 42.53 492.14 42.74C491.89 42.97 491.75 43.3 491.75 43.66V55.74C491.75 56.33 492.26 56.9 492.83 56.98L493.13 57.02C495.38 57.32 498.83 58.45 500.83 59.54C500.92 59.58 501.05 59.59 501.1 59.57C503.1 58.46 506.57 57.32 508.83 57.02L509.17 56.98C509.74 56.91 510.25 56.33 510.25 55.74V43.67C510.25 43.3 510.11 42.98 509.86 42.74C509.6 42.51 509.27 42.4 508.9 42.42C508.88 42.42 508.8 42.42 508.78 42.42C506.87 42.59 503.79 43.62 502.11 44.67L501.95 44.78C501.4 45.12 500.62 45.12 500.09 44.79L499.85 44.65C498.14 43.6 495.06 42.58 493.1 42.42C493.06 42.42 493.02 42.42 492.98 42.42Z" fill="#96C0FF"/>
<path d="M501 60.24C500.59 60.24 500.25 59.9 500.25 59.49V44.49C500.25 44.08 500.59 43.74 501 43.74C501.41 43.74 501.75 44.08 501.75 44.49V59.49C501.75 59.91 501.41 60.24 501 60.24Z" fill="#96C0FF"/>
<path d="M496.75 48.24H494.5C494.09 48.24 493.75 47.9 493.75 47.49C493.75 47.08 494.09 46.74 494.5 46.74H496.75C497.16 46.74 497.5 47.08 497.5 47.49C497.5 47.9 497.16 48.24 496.75 48.24Z" fill="#96C0FF"/>
<path d="M497.5 51.24H494.5C494.09 51.24 493.75 50.9 493.75 50.49C493.75 50.08 494.09 49.74 494.5 49.74H497.5C497.91 49.74 498.25 50.08 498.25 50.49C498.25 50.9 497.91 51.24 497.5 51.24Z" fill="#96C0FF"/>
<path d="M428.5 57.75C428.09 57.75 427.75 57.41 427.75 57V46C427.75 41.59 429.09 40.25 433.5 40.25H440.5C444.91 40.25 446.25 41.59 446.25 46V56C446.25 56.16 446.25 56.31 446.24 56.47C446.21 56.88 445.84 57.2 445.44 57.17C445.03 57.14 444.71 56.78 444.74 56.37C444.75 56.25 444.75 56.12 444.75 56V46C444.75 42.43 444.08 41.75 440.5 41.75H433.5C429.92 41.75 429.25 42.43 429.25 46V57C429.25 57.41 428.91 57.75 428.5 57.75Z" fill="#96C0FF"/>
<path d="M442 61.75H432C429.66 61.75 427.75 59.84 427.75 57.5V56.85C427.75 54.86 429.37 53.25 431.35 53.25H445.5C445.91 53.25 446.25 53.59 446.25 54V57.5C446.25 59.84 444.34 61.75 442 61.75ZM431.35 54.75C430.19 54.75 429.25 55.69 429.25 56.85V57.5C429.25 59.02 430.48 60.25 432 60.25H442C443.52 60.25 444.75 59.02 444.75 57.5V54.75H431.35Z" fill="#96C0FF"/>
<path d="M441 46.75H433C432.59 46.75 432.25 46.41 432.25 46C432.25 45.59 432.59 45.25 433 45.25H441C441.41 45.25 441.75 45.59 441.75 46C441.75 46.41 441.41 46.75 441 46.75Z" fill="#96C0FF"/>
<path d="M438 50.25H433C432.59 50.25 432.25 49.91 432.25 49.5C432.25 49.09 432.59 48.75 433 48.75H438C438.41 48.75 438.75 49.09 438.75 49.5C438.75 49.91 438.41 50.25 438 50.25Z" fill="#96C0FF"/>
<path d="M373 61.75C372.4 61.75 371.81 61.61 371.33 61.34L366.6 58.61C364.64 57.29 364.51 57.05 364.51 54.98V50.02C364.51 47.95 364.64 47.71 366.56 46.42L371.34 43.66C372.29 43.11 373.72 43.11 374.67 43.66L379.4 46.39C381.36 47.71 381.49 47.95 381.49 50.02V54.98C381.49 57.05 381.36 57.29 379.44 58.58L374.66 61.34C374.19 61.62 373.59 61.75 373 61.75ZM373 44.75C372.66 44.75 372.32 44.82 372.08 44.96L367.35 47.69C366.01 48.6 366.01 48.6 366.01 50.02V54.98C366.01 56.4 366.01 56.4 367.4 57.34L372.09 60.04C372.57 60.32 373.44 60.32 373.92 60.04L378.65 57.31C379.99 56.4 379.99 56.4 379.99 54.98V50.02C379.99 48.6 379.99 48.6 378.6 47.66L373.91 44.96C373.68 44.82 373.34 44.75 373 44.75Z" fill="#96C0FF"/>
<path d="M378.5 47.38C378.09 47.38 377.75 47.04 377.75 46.63V44C377.75 42.42 377.08 41.75 375.5 41.75H370.5C368.92 41.75 368.25 42.42 368.25 44V46.56C368.25 46.97 367.91 47.31 367.5 47.31C367.09 47.31 366.75 46.98 366.75 46.56V44C366.75 41.58 368.08 40.25 370.5 40.25H375.5C377.92 40.25 379.25 41.58 379.25 44V46.63C379.25 47.04 378.91 47.38 378.5 47.38Z" fill="#96C0FF"/>
<path d="M374.63 56.63C374.42 56.63 374.2 56.59 373.98 56.5L373 56.12L372.02 56.51C371.49 56.72 370.95 56.67 370.55 56.38C370.15 56.09 369.94 55.59 369.97 55.02L370.03 53.97L369.36 53.16C369 52.71 368.88 52.19 369.04 51.71C369.19 51.24 369.6 50.88 370.15 50.74L371.17 50.48L371.74 49.59C372.35 48.63 373.66 48.63 374.27 49.59L374.84 50.48L375.86 50.74C376.41 50.88 376.82 51.24 376.97 51.71C377.12 52.18 377 52.71 376.64 53.15L375.97 53.96L376.03 55.01C376.06 55.58 375.85 56.07 375.45 56.37C375.21 56.54 374.93 56.63 374.63 56.63ZM370.52 52.2L371.19 53.01C371.42 53.28 371.55 53.71 371.53 54.06L371.47 55.11L372.45 54.72C372.78 54.59 373.22 54.59 373.55 54.72L374.53 55.11L374.47 54.06C374.45 53.71 374.58 53.29 374.81 53.01L375.48 52.2L374.46 51.94C374.12 51.85 373.76 51.59 373.57 51.3L373.01 50.42L372.44 51.3C372.25 51.6 371.89 51.86 371.55 51.95L370.52 52.2Z" fill="#96C0FF"/>
<path d="M312 61.75H306C300.57 61.75 298.25 59.43 298.25 54V48C298.25 42.57 300.57 40.25 306 40.25H312C317.43 40.25 319.75 42.57 319.75 48V54C319.75 59.43 317.43 61.75 312 61.75ZM306 41.75C301.39 41.75 299.75 43.39 299.75 48V54C299.75 58.61 301.39 60.25 306 60.25H312C316.61 60.25 318.25 58.61 318.25 54V48C318.25 43.39 316.61 41.75 312 41.75H306Z" fill="#96C0FF"/>
<path d="M305.68 54.33C305.26 54.33 304.87 54.23 304.53 54.04C303.7 53.57 303.25 52.64 303.25 51.42V41.44C303.25 41.03 303.59 40.69 304 40.69C304.41 40.69 304.75 41.03 304.75 41.44V51.42C304.75 52.07 304.94 52.55 305.27 52.73C305.62 52.93 306.16 52.83 306.75 52.48L308.07 51.69C308.61 51.37 309.38 51.37 309.92 51.69L311.24 52.48C311.84 52.84 312.38 52.93 312.72 52.73C313.05 52.54 313.24 52.06 313.24 51.42V41.44C313.24 41.03 313.58 40.69 313.99 40.69C314.4 40.69 314.74 41.03 314.74 41.44V51.42C314.74 52.64 314.29 53.57 313.46 54.04C312.63 54.51 311.54 54.41 310.47 53.77L309.15 52.98C309.09 52.94 308.9 52.94 308.84 52.98L307.52 53.77C306.9 54.14 306.26 54.33 305.68 54.33Z" fill="#96C0FF"/>
<path d="M312 61.75H306C300.57 61.75 298.25 59.43 298.25 54V48C298.25 42.57 300.57 40.25 306 40.25H312C317.43 40.25 319.75 42.57 319.75 48V54C319.75 59.43 317.43 61.75 312 61.75ZM306 41.75C301.39 41.75 299.75 43.39 299.75 48V54C299.75 58.61 301.39 60.25 306 60.25H312C316.61 60.25 318.25 58.61 318.25 54V48C318.25 43.39 316.61 41.75 312 41.75H306Z" fill="#96C0FF"/>
<path d="M305.68 54.33C305.26 54.33 304.87 54.23 304.53 54.04C303.7 53.57 303.25 52.64 303.25 51.42V41.44C303.25 41.03 303.59 40.69 304 40.69C304.41 40.69 304.75 41.03 304.75 41.44V51.42C304.75 52.07 304.94 52.55 305.27 52.73C305.62 52.93 306.16 52.83 306.75 52.48L308.07 51.69C308.61 51.37 309.38 51.37 309.92 51.69L311.24 52.48C311.84 52.84 312.38 52.93 312.72 52.73C313.05 52.54 313.24 52.06 313.24 51.42V41.44C313.24 41.03 313.58 40.69 313.99 40.69C314.4 40.69 314.74 41.03 314.74 41.44V51.42C314.74 52.64 314.29 53.57 313.46 54.04C312.63 54.51 311.54 54.41 310.47 53.77L309.15 52.98C309.09 52.94 308.9 52.94 308.84 52.98L307.52 53.77C306.9 54.14 306.26 54.33 305.68 54.33Z" fill="#96C0FF"/>
<path d="M245 57.95C242.38 57.95 240.25 55.82 240.25 53.2C240.25 50.58 242.38 48.45 245 48.45C247.62 48.45 249.75 50.58 249.75 53.2C249.75 55.82 247.62 57.95 245 57.95ZM245 49.95C243.21 49.95 241.75 51.41 241.75 53.2C241.75 54.99 243.21 56.45 245 56.45C246.79 56.45 248.25 54.99 248.25 53.2C248.25 51.41 246.79 49.95 245 49.95Z" fill="#96C0FF"/>
<path d="M246.07 55.06C245.88 55.06 245.69 54.99 245.54 54.84L243.43 52.73C243.14 52.44 243.14 51.96 243.43 51.67C243.72 51.38 244.2 51.38 244.49 51.67L246.6 53.78C246.89 54.07 246.89 54.55 246.6 54.84C246.45 54.99 246.26 55.06 246.07 55.06Z" fill="#96C0FF"/>
<path d="M243.93 55.09C243.74 55.09 243.55 55.02 243.4 54.87C243.11 54.58 243.11 54.1 243.4 53.81L245.51 51.7C245.8 51.41 246.28 51.41 246.57 51.7C246.86 51.99 246.86 52.47 246.57 52.76L244.46 54.87C244.31 55.01 244.12 55.09 243.93 55.09Z" fill="#96C0FF"/>
<path d="M249 61.75H241C236.38 61.75 235.52 59.6 235.3 57.51L234.55 49.5C234.44 48.45 234.41 46.9 235.45 45.74C236.35 44.74 237.84 44.26 240 44.26H250C252.17 44.26 253.66 44.75 254.55 45.74C255.59 46.9 255.56 48.45 255.45 49.51L254.7 57.5C254.48 59.6 253.62 61.75 249 61.75ZM240 45.75C238.31 45.75 237.15 46.08 236.56 46.74C236.07 47.28 235.91 48.11 236.04 49.35L236.79 57.36C236.96 58.94 237.39 60.25 241 60.25H249C252.6 60.25 253.04 58.94 253.21 57.35L253.96 49.36C254.09 48.11 253.93 47.28 253.44 46.74C252.85 46.08 251.69 45.75 250 45.75H240Z" fill="#96C0FF"/>
<path d="M249 45.75C248.59 45.75 248.25 45.41 248.25 45V44.2C248.25 42.42 248.25 41.75 245.8 41.75H244.2C241.75 41.75 241.75 42.42 241.75 44.2V45C241.75 45.41 241.41 45.75 241 45.75C240.59 45.75 240.25 45.41 240.25 45V44.2C240.25 42.44 240.25 40.25 244.2 40.25H245.8C249.75 40.25 249.75 42.44 249.75 44.2V45C249.75 45.41 249.41 45.75 249 45.75Z" fill="#96C0FF"/>
<path d="M249.01 53.39C248.67 53.39 248.37 53.16 248.28 52.82C248.18 52.42 248.42 52.01 248.82 51.91C250.77 51.42 252.58 50.57 254.2 49.39C254.53 49.15 255.01 49.22 255.25 49.56C255.49 49.89 255.42 50.36 255.08 50.61C253.3 51.9 251.32 52.83 249.18 53.37C249.13 53.38 249.07 53.39 249.01 53.39Z" fill="#96C0FF"/>
<path d="M241 53.42C240.94 53.42 240.88 53.41 240.82 53.4C238.81 52.91 236.92 52.06 235.19 50.88C234.85 50.65 234.76 50.18 234.99 49.84C235.22 49.5 235.69 49.41 236.03 49.64C237.61 50.72 239.33 51.49 241.17 51.94C241.57 52.04 241.82 52.44 241.72 52.85C241.65 53.19 241.34 53.42 241 53.42Z" fill="#96C0FF"/>
<path d="M181 57.95C178.38 57.95 176.25 55.82 176.25 53.2C176.25 50.58 178.38 48.45 181 48.45C183.62 48.45 185.75 50.58 185.75 53.2C185.75 55.82 183.62 57.95 181 57.95ZM181 49.95C179.21 49.95 177.75 51.41 177.75 53.2C177.75 54.99 179.21 56.45 181 56.45C182.79 56.45 184.25 54.99 184.25 53.2C184.25 51.41 182.79 49.95 181 49.95Z" fill="#96C0FF"/>
<path d="M180.44 54.83C180.12 54.83 179.8 54.71 179.56 54.47L178.91 53.82C178.62 53.53 178.62 53.05 178.91 52.76C179.2 52.47 179.68 52.47 179.97 52.76L180.45 53.24L182.06 51.76C182.36 51.48 182.84 51.5 183.12 51.8C183.4 52.1 183.38 52.58 183.08 52.86L181.3 54.5C181.05 54.72 180.75 54.83 180.44 54.83Z" fill="#96C0FF"/>
<path d="M185 61.75H177C172.38 61.75 171.52 59.6 171.3 57.51L170.55 49.5C170.44 48.45 170.41 46.9 171.45 45.74C172.35 44.74 173.84 44.26 176 44.26H186C188.17 44.26 189.66 44.75 190.55 45.74C191.59 46.9 191.56 48.45 191.45 49.51L190.7 57.5C190.48 59.6 189.62 61.75 185 61.75ZM176 45.75C174.31 45.75 173.15 46.08 172.56 46.74C172.07 47.28 171.91 48.11 172.04 49.35L172.79 57.36C172.96 58.94 173.39 60.25 177 60.25H185C188.6 60.25 189.04 58.94 189.21 57.35L189.96 49.36C190.09 48.11 189.93 47.28 189.44 46.74C188.85 46.08 187.69 45.75 186 45.75H176Z" fill="#96C0FF"/>
<path d="M185 45.75C184.59 45.75 184.25 45.41 184.25 45V44.2C184.25 42.42 184.25 41.75 181.8 41.75H180.2C177.75 41.75 177.75 42.42 177.75 44.2V45C177.75 45.41 177.41 45.75 177 45.75C176.59 45.75 176.25 45.41 176.25 45V44.2C176.25 42.44 176.25 40.25 180.2 40.25H181.8C185.75 40.25 185.75 42.44 185.75 44.2V45C185.75 45.41 185.41 45.75 185 45.75Z" fill="#96C0FF"/>
<path d="M185.01 53.39C184.67 53.39 184.37 53.16 184.28 52.82C184.18 52.42 184.42 52.01 184.82 51.91C186.77 51.42 188.58 50.57 190.2 49.39C190.53 49.15 191 49.22 191.25 49.56C191.49 49.89 191.42 50.36 191.08 50.61C189.3 51.9 187.32 52.83 185.18 53.37C185.13 53.38 185.07 53.39 185.01 53.39Z" fill="#96C0FF"/>
<path d="M177 53.42C176.94 53.42 176.88 53.41 176.82 53.4C174.81 52.91 172.92 52.06 171.19 50.88C170.85 50.65 170.76 50.18 170.99 49.84C171.22 49.5 171.69 49.41 172.03 49.64C173.61 50.72 175.33 51.49 177.17 51.94C177.57 52.04 177.82 52.44 177.72 52.85C177.65 53.19 177.34 53.42 177 53.42Z" fill="#96C0FF"/>
<path d="M117 57.95C114.38 57.95 112.25 55.82 112.25 53.2C112.25 50.58 114.38 48.45 117 48.45C119.62 48.45 121.75 50.58 121.75 53.2C121.75 55.82 119.62 57.95 117 57.95ZM117 49.95C115.21 49.95 113.75 51.41 113.75 53.2C113.75 54.99 115.21 56.45 117 56.45C118.79 56.45 120.25 54.99 120.25 53.2C120.25 51.41 118.79 49.95 117 49.95Z" fill="#96C0FF"/>
<path d="M116 54.95C115.75 54.95 115.5 54.82 115.36 54.59C115.15 54.23 115.26 53.77 115.62 53.56L116.38 53.1C116.46 53.06 116.5 52.97 116.5 52.89V51.96C116.5 51.55 116.84 51.21 117.25 51.21C117.66 51.21 118 51.54 118 51.95V52.88C118 53.49 117.67 54.07 117.15 54.38L116.39 54.84C116.27 54.92 116.13 54.95 116 54.95Z" fill="#96C0FF"/>
<path d="M121 61.75H113C108.38 61.75 107.52 59.6 107.3 57.51L106.55 49.5C106.44 48.45 106.41 46.9 107.45 45.74C108.35 44.74 109.84 44.26 112 44.26H122C124.17 44.26 125.66 44.75 126.55 45.74C127.59 46.9 127.56 48.45 127.45 49.51L126.7 57.5C126.48 59.6 125.62 61.75 121 61.75ZM112 45.75C110.31 45.75 109.15 46.08 108.56 46.74C108.07 47.28 107.91 48.11 108.04 49.35L108.79 57.36C108.96 58.94 109.39 60.25 113 60.25H121C124.6 60.25 125.04 58.94 125.21 57.35L125.96 49.36C126.09 48.11 125.93 47.28 125.44 46.74C124.85 46.08 123.69 45.75 122 45.75H112Z" fill="#96C0FF"/>
<path d="M121 45.75C120.59 45.75 120.25 45.41 120.25 45V44.2C120.25 42.42 120.25 41.75 117.8 41.75H116.2C113.75 41.75 113.75 42.42 113.75 44.2V45C113.75 45.41 113.41 45.75 113 45.75C112.59 45.75 112.25 45.41 112.25 45V44.2C112.25 42.44 112.25 40.25 116.2 40.25H117.8C121.75 40.25 121.75 42.44 121.75 44.2V45C121.75 45.41 121.41 45.75 121 45.75Z" fill="#96C0FF"/>
<path d="M121.01 53.39C120.67 53.39 120.37 53.16 120.28 52.82C120.18 52.42 120.42 52.01 120.82 51.91C122.77 51.42 124.58 50.57 126.2 49.39C126.53 49.15 127 49.22 127.25 49.56C127.49 49.89 127.42 50.36 127.08 50.61C125.3 51.9 123.32 52.83 121.18 53.37C121.13 53.38 121.07 53.39 121.01 53.39Z" fill="#96C0FF"/>
<path d="M113 53.42C112.94 53.42 112.88 53.41 112.82 53.4C110.81 52.91 108.92 52.06 107.19 50.88C106.85 50.65 106.76 50.18 106.99 49.84C107.22 49.5 107.69 49.41 108.03 49.64C109.61 50.72 111.33 51.49 113.17 51.94C113.57 52.04 113.82 52.44 113.72 52.85C113.65 53.19 113.34 53.42 113 53.42Z" fill="#96C0FF"/>
<path d="M57 61.75H49C44.38 61.75 43.52 59.6 43.3 57.51L42.55 49.5C42.44 48.45 42.41 46.9 43.45 45.74C44.35 44.74 45.84 44.26 48 44.26H58C60.17 44.26 61.66 44.75 62.55 45.74C63.59 46.9 63.56 48.45 63.45 49.51L62.7 57.5C62.48 59.6 61.62 61.75 57 61.75ZM48 45.75C46.31 45.75 45.15 46.08 44.56 46.74C44.07 47.28 43.91 48.11 44.04 49.35L44.79 57.36C44.96 58.94 45.39 60.25 49 60.25H57C60.6 60.25 61.04 58.94 61.21 57.35L61.96 49.36C62.09 48.11 61.93 47.28 61.44 46.74C60.85 46.08 59.69 45.75 58 45.75H48Z" fill="#96C0FF"/>
<path d="M57 45.75C56.59 45.75 56.25 45.41 56.25 45V44.2C56.25 42.42 56.25 41.75 53.8 41.75H52.2C49.75 41.75 49.75 42.42 49.75 44.2V45C49.75 45.41 49.41 45.75 49 45.75C48.59 45.75 48.25 45.41 48.25 45V44.2C48.25 42.44 48.25 40.25 52.2 40.25H53.8C57.75 40.25 57.75 42.44 57.75 44.2V45C57.75 45.41 57.41 45.75 57 45.75Z" fill="#96C0FF"/>
<path d="M53 55.75C50.25 55.75 50.25 54.05 50.25 53.03V52C50.25 50.59 50.59 50.25 52 50.25H54C55.41 50.25 55.75 50.59 55.75 52V53C55.75 54.04 55.75 55.75 53 55.75ZM51.75 51.75C51.75 51.83 51.75 51.92 51.75 52V53.03C51.75 54.06 51.75 54.25 53 54.25C54.25 54.25 54.25 54.09 54.25 53.02V52C54.25 51.92 54.25 51.83 54.25 51.75C54.17 51.75 54.08 51.75 54 51.75H52C51.92 51.75 51.83 51.75 51.75 51.75Z" fill="#96C0FF"/>
<path d="M55 53.77C54.63 53.77 54.3 53.49 54.26 53.11C54.21 52.7 54.5 52.32 54.91 52.27C57.55 51.94 60.08 50.94 62.21 49.39C62.54 49.14 63.01 49.22 63.26 49.56C63.5 49.89 63.43 50.36 63.09 50.61C60.75 52.31 57.99 53.4 55.09 53.77C55.06 53.77 55.03 53.77 55 53.77Z" fill="#96C0FF"/>
<path d="M51 53.78C50.97 53.78 50.94 53.78 50.91 53.78C48.17 53.47 45.5 52.47 43.19 50.89C42.85 50.66 42.76 50.19 42.99 49.85C43.22 49.51 43.69 49.42 44.03 49.65C46.14 51.09 48.57 52 51.07 52.29C51.48 52.34 51.78 52.71 51.73 53.12C51.7 53.5 51.38 53.78 51 53.78Z" fill="#96C0FF"/>
</svg>
