<svg width="20" height="20" viewBox="0 0 20 20" fill="none" xmlns="http://www.w3.org/2000/svg">
<path d="M3.28172 9.93135L3.28141 9.93115C2.4891 9.41473 2.01672 8.54699 2.01672 7.60003C2.01672 6.65323 2.48893 5.78563 3.28099 5.26918C3.28113 5.26909 3.28127 5.269 3.28141 5.26891L8.30566 2.00273C8.30573 2.00268 8.30579 2.00264 8.30586 2.0026C8.30588 2.00259 8.30589 2.00258 8.30591 2.00257C8.76881 1.70211 9.38422 1.53973 10.0191 1.54065C10.6542 1.54158 11.2664 1.70583 11.7242 2.00869L11.7258 2.00975L16.717 5.28445C16.717 5.28448 16.7171 5.28451 16.7171 5.28454C17.5028 5.80132 17.9751 6.67002 17.9751 7.60836C17.9751 8.54676 17.5028 9.4155 16.717 9.93227L11.7258 13.207L11.7256 13.2071C11.2663 13.5087 10.6509 13.6667 10.0084 13.6667C9.37993 13.6667 8.76136 13.5029 8.29668 13.2052L3.28172 9.93135ZM3.42722 5.48103L3.42722 5.48103L3.42547 5.48218C2.70504 5.9556 2.27506 6.72742 2.27506 7.60003C2.27506 8.46887 2.69367 9.24333 3.42723 9.71904C3.42755 9.71924 3.42787 9.71945 3.42819 9.71965L8.4434 12.9937L8.44405 12.9941C8.89296 13.2862 9.47283 13.4125 10.0167 13.4125C10.5606 13.4125 11.1405 13.2862 11.5894 12.9941L11.591 12.9931L16.5827 9.71808L16.583 9.71788C17.3069 9.24213 17.7251 8.46845 17.7251 7.60003C17.7251 6.73161 17.3069 5.95793 16.583 5.48218L16.5827 5.48197L11.591 2.20697L11.5911 2.20683L11.5799 2.1999C11.1341 1.92393 10.5628 1.7917 10.0084 1.7917C9.47255 1.7917 8.89026 1.91139 8.43962 2.21714L3.42722 5.48103Z" fill="#96C0FF" stroke="#96C0FF"/>
<path d="M9.11639 18.334L9.11595 18.3339L6.45761 17.4505L6.45712 17.4504C5.40332 17.1014 4.55131 15.9185 4.55827 14.8115L4.55828 14.8094L4.56661 10.9011H4.56661V10.9C4.56661 10.8699 4.5789 10.8386 4.60454 10.813C4.63019 10.7873 4.66147 10.775 4.69161 10.775C4.72176 10.775 4.75304 10.7873 4.77868 10.813C4.80424 10.8385 4.81653 10.8697 4.81661 10.8997C4.81661 10.8998 4.81661 10.8999 4.81661 10.9L4.80828 14.8073V14.8084C4.80828 15.3301 5.02035 15.851 5.32033 16.2673C5.62035 16.6837 6.04709 17.0493 6.54023 17.2155L6.54228 17.2162L9.20061 18.0995L9.20061 18.0995L9.20374 18.1005C9.44005 18.1773 9.73579 18.2063 9.99995 18.2063C10.2641 18.2063 10.5598 18.1773 10.7962 18.1005L10.7962 18.1006L10.7993 18.0995L13.4576 17.2162L13.4597 17.2155C13.9527 17.0493 14.3793 16.6839 14.6791 16.2689C14.9788 15.8543 15.1916 15.3353 15.1916 14.8167V10.95C15.1916 10.9199 15.2039 10.8886 15.2295 10.863C15.2552 10.8373 15.2865 10.825 15.3166 10.825C15.3468 10.825 15.378 10.8373 15.4037 10.863C15.4293 10.8886 15.4416 10.9199 15.4416 10.95V14.8167C15.4416 15.926 14.5965 17.1022 13.541 17.4593C13.5407 17.4594 13.5403 17.4595 13.54 17.4596L10.89 18.3402C10.6465 18.4138 10.3244 18.4584 9.99995 18.4584C9.67221 18.4584 9.35304 18.4129 9.11639 18.334Z" fill="#96C0FF" stroke="#96C0FF"/>
<path d="M17.8334 13.125C17.4917 13.125 17.2084 12.8417 17.2084 12.5V7.5C17.2084 7.15833 17.4917 6.875 17.8334 6.875C18.175 6.875 18.4584 7.15833 18.4584 7.5V12.5C18.4584 12.8417 18.175 13.125 17.8334 13.125Z" fill="#96C0FF"/>
</svg>
