<svg width="24" height="24" viewBox="0 0 24 24" fill="none" xmlns="http://www.w3.org/2000/svg">
<path d="M12 13.75C11.59 13.75 11.25 13.41 11.25 13V8C11.25 7.59 11.59 7.25 12 7.25C12.41 7.25 12.75 7.59 12.75 8V13C12.75 13.41 12.41 13.75 12 13.75Z" fill="#96C0FF"/>
<path d="M12 22.75C6.76 22.75 2.5 18.49 2.5 13.25C2.5 8.01 6.76 3.75 12 3.75C17.24 3.75 21.5 8.01 21.5 13.25C21.5 13.66 21.16 14 20.75 14C20.34 14 20 13.66 20 13.25C20 8.84 16.41 5.25 12 5.25C7.59 5.25 4 8.84 4 13.25C4 17.66 7.59 21.25 12 21.25C12.41 21.25 12.75 21.59 12.75 22C12.75 22.41 12.41 22.75 12 22.75Z" fill="#96C0FF"/>
<path d="M15 2.75H9C8.59 2.75 8.25 2.41 8.25 2C8.25 1.59 8.59 1.25 9 1.25H15C15.41 1.25 15.75 1.59 15.75 2C15.75 2.41 15.41 2.75 15 2.75Z" fill="#96C0FF"/>
<path d="M16.1499 22.02C15.7999 22.02 15.4799 21.94 15.1899 21.77C14.5299 21.39 14.1499 20.62 14.1499 19.66V17.35C14.1499 16.39 14.5299 15.62 15.1899 15.24C15.8499 14.86 16.6999 14.92 17.5299 15.39L19.5299 16.55C20.3599 17.03 20.8399 17.74 20.8399 18.5C20.8399 19.26 20.3599 19.97 19.5299 20.45L17.5299 21.61C17.0699 21.88 16.5999 22.02 16.1499 22.02ZM16.1599 16.48C16.0799 16.48 15.9999 16.5 15.9399 16.53C15.7599 16.63 15.6499 16.94 15.6499 17.34V19.65C15.6499 20.05 15.7599 20.36 15.9399 20.46C16.1199 20.56 16.4399 20.51 16.7799 20.31L18.7799 19.15C19.1299 18.95 19.3399 18.7 19.3399 18.5C19.3399 18.3 19.1299 18.05 18.7799 17.85L16.7799 16.69C16.5499 16.55 16.3299 16.48 16.1599 16.48Z" fill="#96C0FF"/>
</svg>
